<svg width="135" height="75" viewBox="0 0 135 75" fill="none" xmlns="http://www.w3.org/2000/svg">
<path d="M38.6824 22.9552L40.5091 21.7374L41.7269 24.7819L42.9447 25.9997L44.1625 27.2175H45.3803H47.8159L55.1228 24.7819L59.3851 22.9552L61.2118 28.4353L62.4296 32.0887H56.9495H55.1228L53.905 32.6976L52.6871 33.9154L52.0782 35.1332V39.3955L52.6871 41.2222L53.2961 42.44H54.5139H55.7317L56.9495 41.2222L57.5584 39.3955V38.1777L58.1673 37.5688H59.6046H66.083L70.3453 41.2222L72.7809 43.0489L75.2165 44.2667L75.8254 44.8756L76.4343 47.9202L77.0432 52.7914L78.2611 55.8359L80.0878 58.8804L76.4343 60.0982L74.6076 61.316L72.7809 62.5338L72.172 64.3605V65.5783H77.6521V66.1872V67.405L78.0045 68.0139H89.8302H95.3103L96.5281 66.7961L97.137 64.9694V59.4893L99.7912 56.794L103.294 52.1019L104.001 49.8202L105.479 45.0961V43.6578H108.097L114.795 41.2222L119.666 39.3955L124.538 36.351L127.582 33.9154L130.627 30.8709L133.062 27.2175L134.28 24.7819V23.5641L131.844 24.7819L126.973 27.2175L123.32 27.8264H119.058L115.404 27.2175L111.751 25.3908L106.879 23.5641L100.79 22.3463L96.5281 21.7374L89.8302 21.1284L84.3501 19.9106L77.6521 16.8661L71.5631 13.2127L67.9097 9.5593L66.083 7.12369L63.0385 4.07918L59.3851 2.25247L55.7317 1.03467H52.0782L47.207 2.86138L41.118 6.51479L35.029 11.386L32.5934 13.8216L31.9845 15.6483L32.5934 18.6928L34.4201 21.7374L36.8557 22.9552H38.6824Z" fill="#2DC384"/>
<path d="M51.5095 16.3284L40.5494 22.0694M105.449 44.1149C126.396 38.7565 134.117 27.6948 134.32 23.0265C125.552 30.3333 116.459 28.1007 113.009 26.071C107.65 22.6612 96.1625 21.4028 91.0883 21.1998C79.8845 20.7127 68.9759 11.2719 67.95 9.63047C63.0788 1.83651 56.1779 0.699897 53.3363 1.10583C47.978 1.10583 36.5119 9.48814 33.0506 13.2127C29.3972 18.6928 36.0949 24.173 38.7226 23.0263L40.5494 22.0694M104.628 34.7119C105.642 39.1772 107.894 50.5171 97.1773 59.2853V64.4319C97.1773 65.6497 96.5684 68.0853 94.1328 68.0853H77.6924C77.4401 67.4964 77.4178 66.6007 78.0332 65.6497M82.3704 39.3955C81.3653 41.262 81.1989 43.06 81.2539 45.5559M75.8657 44.947C76.0687 48.1945 77.2053 55.5419 80.128 58.9518C77.0835 59.5607 71.2381 61.7527 72.2123 65.6497H78.0332M78.0332 65.6497C78.9026 64.3061 81.0445 62.8519 85.6082 61.9963C83.8904 58.4177 81.3853 51.5279 81.2539 45.5559M66.1233 37.6402C68.4976 40.0758 75.3348 46.043 81.2539 45.5559M66.1233 32.16H62.4699M70.3856 37.6402H59.4254C57.964 37.6402 57.5986 38.0461 57.5986 38.2491C57.1115 42.6332 54.9601 42.9173 53.9452 42.5114C51.9967 42.0243 51.9156 37.8431 52.1185 35.8135C52.1185 33.3779 54.3609 32.0887 55.7719 32.16H62.4699M40.5494 22.0694C40.9553 24.2152 42.985 28.2631 47.8562 27.2888L59.4254 23.0263L62.4699 32.16" stroke="#2DC384" stroke-linecap="round" stroke-linejoin="round"/>
<circle cx="47.8159" cy="11.9952" r="0.717805" fill="#1E1E1E" stroke="#2DC384"/>
<circle cx="48.3285" cy="11.5492" r="1.2178" fill="#1E1E1E"/>
<path d="M40.897 21.8908L51.5751 16.2919" stroke="#268D62" stroke-linecap="round" stroke-linejoin="round"/>
<path d="M82.318 39.334C81.1056 42.6467 80.1093 51.8188 85.8233 62.0049C83.9746 62.1823 79.8513 63.1405 78.1477 65.554" stroke="#268D62" stroke-linecap="round" stroke-linejoin="round"/>
<path d="M8.51953 59.138C8.47852 58.6693 8.28809 58.306 7.94824 58.0482C7.6084 57.7904 7.13672 57.6615 6.5332 57.6615C5.93555 57.6615 5.47852 57.7787 5.16211 58.013C4.8457 58.2474 4.6875 58.555 4.6875 58.9359C4.6875 59.2992 4.84863 59.5892 5.1709 59.806C5.49902 60.0228 5.9707 60.1986 6.58594 60.3333L7.69336 60.597C8.94727 60.8724 9.90527 61.3265 10.5674 61.9593C11.2354 62.5863 11.5723 63.3978 11.5781 64.3939C11.5781 65.1908 11.376 65.8792 10.9717 66.4593C10.5732 67.0394 9.99609 67.4847 9.24023 67.7953C8.48438 68.1058 7.58203 68.2611 6.5332 68.2611C5.46094 68.2552 4.53223 68.0912 3.74707 67.7689C2.96777 67.4466 2.36133 66.9603 1.92773 66.3099C1.5 65.6595 1.27734 64.8568 1.25977 63.9017H4.14258C4.17773 64.5052 4.40332 64.9681 4.81934 65.2904C5.24121 65.6068 5.80078 65.765 6.49805 65.765C7.125 65.765 7.61719 65.6419 7.97461 65.3958C8.33789 65.1439 8.52539 64.8099 8.53711 64.3939C8.53125 64.0306 8.36426 63.7406 8.03613 63.5238C7.70801 63.307 7.18359 63.1165 6.46289 62.9525L5.12695 62.6361C2.77148 62.0853 1.59375 60.9134 1.59375 59.1205C1.59375 58.347 1.80469 57.6615 2.22656 57.0638C2.64844 56.4662 3.23438 56.0033 3.98438 55.6751C4.74023 55.347 5.5957 55.183 6.55078 55.183C7.51758 55.183 8.36426 55.3499 9.09082 55.6839C9.82324 56.0121 10.3887 56.4749 10.7871 57.0726C11.1914 57.6703 11.3965 58.3587 11.4023 59.138H8.51953ZM12.3255 55.3587H23.0306V57.8021H19.1634V68.0853H16.1927V57.8021H12.3255V55.3587ZM34.8874 55.3587V63.5677C34.8874 64.5052 34.6618 65.3285 34.2107 66.0374C33.7654 66.7464 33.1384 67.2943 32.3298 67.681C31.5212 68.0677 30.5866 68.2611 29.5261 68.2611C28.4597 68.2611 27.5222 68.0677 26.7136 67.681C25.905 67.2943 25.278 66.7464 24.8327 66.0374C24.3874 65.3285 24.1648 64.5052 24.1648 63.5677V55.3587H27.153V63.3216C27.153 63.7669 27.2527 64.1654 27.4519 64.5169C27.6511 64.8685 27.9294 65.1439 28.2868 65.3431C28.6501 65.5423 29.0632 65.6419 29.5261 65.6419C29.989 65.6419 30.3991 65.5423 30.7566 65.3431C31.114 65.1439 31.3894 64.8685 31.5827 64.5169C31.782 64.1654 31.8816 63.7669 31.8816 63.3216V55.3587H34.8874ZM36.461 68.0853V55.3587H41.1192C42.4083 55.3587 43.5245 55.6136 44.4678 56.1234C45.4112 56.6273 46.1348 57.3568 46.6387 58.3119C47.1427 59.2669 47.3946 60.4037 47.3946 61.722C47.3946 63.0345 47.1427 64.1683 46.6387 65.1234C46.1348 66.0785 45.4112 66.8109 44.4678 67.3206C43.5245 67.8304 42.4083 68.0853 41.1192 68.0853H36.461ZM41.0137 65.5189C42.1387 65.5247 42.9825 65.2289 43.545 64.6312C44.1075 64.0335 44.3887 63.0638 44.3887 61.722C44.3887 60.3744 44.1046 59.4046 43.5362 58.8128C42.9737 58.2152 42.1212 57.9134 40.9786 57.9076H39.4493V65.5189H41.0137ZM51.7983 68.0853H48.81V55.3587H51.7983V68.0853ZM65.3074 61.722C65.3074 63.0814 65.0438 64.2562 64.5164 65.2464C63.9949 66.2308 63.2742 66.9808 62.3543 67.4964C61.4402 68.0062 60.409 68.2611 59.2605 68.2611C58.1063 68.2611 57.0721 68.0033 56.158 67.4876C55.2439 66.972 54.5232 66.222 53.9959 65.2376C53.4744 64.2474 53.2137 63.0755 53.2137 61.722C53.2137 60.3568 53.4744 59.182 53.9959 58.1976C54.5232 57.2132 55.2439 56.4662 56.158 55.9564C57.0721 55.4408 58.1063 55.183 59.2605 55.183C60.409 55.183 61.4402 55.4408 62.3543 55.9564C63.2742 56.4662 63.9949 57.2132 64.5164 58.1976C65.0438 59.182 65.3074 60.3568 65.3074 61.722ZM56.2723 61.722C56.2723 62.554 56.3924 63.263 56.6326 63.849C56.8729 64.4349 57.2156 64.8773 57.6609 65.1761C58.1063 65.4749 58.6395 65.6244 59.2605 65.6244C59.8816 65.6244 60.4148 65.4749 60.8602 65.1761C61.3113 64.8773 61.6541 64.4349 61.8885 63.849C62.1287 63.263 62.2488 62.554 62.2488 61.722C62.2488 60.89 62.1287 60.181 61.8885 59.5951C61.6541 59.0091 61.3113 58.5667 60.8602 58.2679C60.4148 57.9632 59.8816 57.8138 59.2605 57.8197C58.6395 57.8138 58.1063 57.9632 57.6609 58.2679C57.2156 58.5667 56.8729 59.0091 56.6326 59.5951C56.3924 60.181 56.2723 60.89 56.2723 61.722Z" fill="#268D62"/>
</svg>
