<svg xmlns="http://www.w3.org/2000/svg" version="1.1" xmlns:xlink="http://www.w3.org/1999/xlink" xmlns:svgjs="http://svgjs.com/svgjs" width="42" height="28"><svg width="42" height="28" viewBox="0 0 42 28" fill="none" xmlns="http://www.w3.org/2000/svg">
<path d="M3.61802 9.40936L4.33202 8.93336L4.80802 10.1234L5.28403 10.5994L5.76003 11.0754H6.23603H7.18804L10.0441 10.1234L11.7101 9.40936L12.4241 11.5514L12.9001 12.9794H10.7581H10.0441L9.56805 13.2174L9.09205 13.6934L8.85405 14.1694V15.8354L9.09205 16.5494L9.33005 17.0254H9.80606H10.2821L10.7581 16.5494L10.9961 15.8354V15.3594L11.2341 15.1214H11.7959H14.3281L15.9941 16.5494L16.9461 17.2634L17.8981 17.7394L18.1361 17.9774L18.3741 19.1674L18.6121 21.0714L19.0881 22.2614L19.8021 23.4515L18.3741 23.9275L17.6601 24.4035L16.9461 24.8795L16.7081 25.5935V26.0695H18.8501V26.3075V26.7835L18.9878 27.0215H23.6101H25.7522L26.2282 26.5455L26.4662 25.8315V23.6895L27.5036 22.6359L28.8728 20.802L29.1491 19.9101L29.727 18.0636V17.5014H30.7502L33.3682 16.5494L35.2722 15.8354L37.1762 14.6454L38.3662 13.6934L39.5562 12.5034L40.5083 11.0754L40.9843 10.1234V9.64736L40.0322 10.1234L38.1282 11.0754L36.7002 11.3134H35.0342L33.6062 11.0754L32.1782 10.3614L30.2742 9.64736L27.8942 9.17136L26.2282 8.93336L23.6101 8.69536L21.4681 8.21936L18.8501 7.02935L16.4701 5.60134L15.0421 4.17333L14.3281 3.22132L13.1381 2.03132L11.7101 1.31731L10.2821 0.841309H8.85405L6.95004 1.55531L4.57002 2.98332L2.19001 4.88733L1.238 5.83934L1 6.55334L1.238 7.74335L1.95201 8.93336L2.90401 9.40936H3.61802Z" fill="#2DC384"></path>
<path d="M8.63176 6.81916L4.34777 9.06316M29.7152 17.6801C37.9024 15.5856 40.9207 11.2619 41 9.43725C37.5728 12.2933 34.0186 11.4206 32.6699 10.6273C30.5755 9.29445 26.0852 8.80258 24.1019 8.72325C19.7227 8.53285 15.4588 4.84273 15.0578 4.20115C13.1538 1.15473 10.4565 0.710457 9.3458 0.869124C7.25138 0.869124 2.76964 4.14551 1.41671 5.60134C-0.011274 7.74335 2.60665 9.88537 3.63373 9.43718L4.34777 9.06316M29.394 14.0047C29.7907 15.7501 30.6707 20.1825 26.4819 23.6097V25.6214C26.4819 26.0974 26.2439 27.0494 25.2919 27.0494H18.8659C18.7672 26.8192 18.7585 26.4691 18.999 26.0974M20.6943 15.8354C20.3015 16.565 20.2364 17.2678 20.2579 18.2433M18.1519 18.0053C18.2312 19.2746 18.6755 22.1465 19.8179 23.4793C18.6279 23.7173 16.343 24.5741 16.7238 26.0974H18.999M18.999 26.0974C19.3389 25.5722 20.1761 25.0038 21.9599 24.6694C21.2885 23.2706 20.3093 20.5776 20.2579 18.2433M14.3438 15.1493C15.2719 16.1013 17.9443 18.4337 20.2579 18.2433M14.3438 13.0073H12.9158M16.0098 15.1493H11.7258C11.1546 15.1493 11.0118 15.308 11.0118 15.3873C10.8214 17.1009 9.98047 17.212 9.5838 17.0533C8.82219 16.8629 8.79046 15.2286 8.86979 14.4353C8.86979 13.4833 9.74626 12.9794 10.2978 13.0073H12.9158M4.34777 9.06316C4.50643 9.90186 5.29977 11.4841 7.20378 11.1033L11.7258 9.43718L12.9158 13.0073" stroke="#2DC384" stroke-linecap="round" stroke-linejoin="round"></path>
<ellipse cx="7.18804" cy="5.12537" rx="0.476003" ry="0.476003" fill="#1E1E1E"></ellipse>
<ellipse cx="7.38839" cy="4.95087" rx="0.476003" ry="0.476003" fill="#1E1E1E"></ellipse>
<path d="M4.48357 8.99335L8.65733 6.80492" stroke="#268D62" stroke-linecap="round" stroke-linejoin="round"></path>
<path d="M20.6738 15.8113C20.1999 17.1062 19.8104 20.6912 22.0439 24.6727C21.3213 24.742 19.7096 25.1166 19.0437 26.0599" stroke="#268D62" stroke-linecap="round" stroke-linejoin="round"></path>
</svg><style>@media (prefers-color-scheme: light) { :root { filter: none; } }
</style></svg>